<?xml version="1.0" encoding="UTF-8"?>
<svg id="Layer_2" data-name="Layer 2" xmlns="http://www.w3.org/2000/svg" viewBox="0 0 94.22 101.51">
  <defs>
    <style>
      .cls-1 {
        fill: #fff8fd;
      }

      .cls-2 {
        fill: #ff395e;
      }
    </style>
  </defs>
  <g id="Layer_1-2" data-name="Layer 1">
    <g>
      <path class="cls-2" d="M94.22,47.11C94.22,20.48,72.13-.99,45.27,.04,21.08,.96,1.28,20.5,.06,44.68c-1.18,23.35,14.67,43.21,36.22,48.29,.66,.16,1.27,.48,1.75,.96l6.53,6.53c1.41,1.41,3.71,1.41,5.12,0l6.53-6.53c.48-.48,1.09-.8,1.74-.96,20.8-4.89,36.28-23.56,36.28-45.85Z"/>
      <path class="cls-1" d="M63.61,41.3l-14.53-14c-1.1-1.06-2.83-1.06-3.93,0l-14.53,14-4.5,4.33,2.08,2.16,2.42-2.33v19.25h10.75v-15.09c0-1.06,.86-1.91,1.91-1.91h7.68c1.06,0,1.91,.86,1.91,1.91v15.09h10.75v-19.25l2.42,2.33,2.08-2.16-4.5-4.33Z"/>
    </g>
  </g>
</svg>